<svg xmlns="http://www.w3.org/2000/svg" xmlns:xlink="http://www.w3.org/1999/xlink" width="500" zoomAndPan="magnify" viewBox="0 0 375 374.999991" height="500" preserveAspectRatio="xMidYMid meet" version="1.0"><defs><g/><clipPath id="57fe7768f9"><path d="M 103 179 L 140 179 L 140 196 L 103 196 Z M 103 179 " clip-rule="nonzero"/></clipPath><clipPath id="2166be032a"><path d="M 121.558594 165.304688 L 143.835938 187.582031 L 121.558594 209.855469 L 99.285156 187.582031 Z M 121.558594 165.304688 " clip-rule="nonzero"/></clipPath><clipPath id="a660c34f61"><path d="M 121.558594 165.304688 L 143.835938 187.582031 L 121.558594 209.855469 L 99.285156 187.582031 Z M 121.558594 165.304688 " clip-rule="nonzero"/></clipPath></defs><g clip-path="url(#57fe7768f9)"><g clip-path="url(#2166be032a)"><g clip-path="url(#a660c34f61)"><path fill="#000000" d="M 131.460938 195.414062 L 123.542969 195.414062 C 119.167969 195.414062 115.621094 191.867188 115.625 187.496094 C 115.621094 186.808594 115.742188 186.152344 115.902344 185.515625 L 119.582031 185.515625 C 119.757812 185.515625 119.917969 185.570312 120.078125 185.617188 C 119.773438 186.179688 119.582031 186.8125 119.582031 187.496094 C 119.582031 189.679688 121.359375 191.453125 123.542969 191.453125 L 131.460938 191.453125 C 133.644531 191.453125 135.417969 189.679688 135.417969 187.492188 C 135.417969 185.3125 133.644531 183.535156 131.460938 183.535156 L 128.644531 183.535156 C 127.945312 181.949219 126.835938 180.597656 125.460938 179.578125 L 131.460938 179.578125 C 135.832031 179.578125 139.378906 183.121094 139.378906 187.496094 C 139.378906 191.867188 135.832031 195.414062 131.460938 195.414062 Z M 114.480469 191.453125 L 111.664062 191.453125 C 109.480469 191.453125 107.707031 189.679688 107.703125 187.496094 C 107.707031 185.3125 109.480469 183.535156 111.664062 183.535156 L 119.582031 183.535156 C 121.765625 183.535156 123.542969 185.3125 123.542969 187.496094 C 123.542969 188.175781 123.351562 188.8125 123.046875 189.375 C 123.210938 189.417969 123.367188 189.472656 123.542969 189.472656 L 127.222656 189.476562 C 127.386719 188.839844 127.5 188.183594 127.5 187.496094 C 127.5 183.121094 123.957031 179.578125 119.582031 179.578125 L 111.664062 179.578125 C 107.292969 179.578125 103.746094 183.121094 103.746094 187.496094 C 103.746094 191.867188 107.292969 195.414062 111.664062 195.414062 L 117.664062 195.414062 C 116.289062 194.390625 115.179688 193.039062 114.480469 191.453125 Z M 114.480469 191.453125 " fill-opacity="1" fill-rule="nonzero"/></g></g></g><g fill="#000000" fill-opacity="1"><g transform="translate(143.757857, 196.290602)"><g><path d="M 11.230469 0 L 11.230469 -2.949219 L 4.761719 -2.949219 L 4.761719 -6.890625 L 10.660156 -6.890625 L 10.660156 -9.816406 L 4.761719 -9.816406 L 4.761719 -12.746094 L 9.839844 -12.746094 L 9.839844 -15.695312 L 1.496094 -15.695312 L 1.496094 0 Z M 11.230469 0 "/></g></g></g><g fill="#000000" fill-opacity="1"><g transform="translate(155.824415, 196.290602)"><g><path d="M 8.425781 -15.695312 L 8.425781 -9.902344 C 7.964844 -10.40625 6.785156 -10.871094 5.835938 -10.871094 C 2.992188 -10.871094 0.609375 -8.386719 0.609375 -5.308594 C 0.609375 -2.273438 2.929688 0.230469 5.835938 0.230469 C 6.804688 0.230469 7.964844 -0.148438 8.425781 -0.757812 L 8.425781 0 L 11.417969 0 L 11.417969 -15.695312 Z M 6.128906 -2.738281 C 4.761719 -2.738281 3.644531 -3.792969 3.644531 -5.308594 C 3.644531 -6.804688 4.761719 -7.878906 6.128906 -7.878906 C 7.519531 -7.878906 8.554688 -6.804688 8.554688 -5.308594 C 8.554688 -3.792969 7.519531 -2.738281 6.128906 -2.738281 Z M 6.128906 -2.738281 "/></g></g></g><g fill="#000000" fill-opacity="1"><g transform="translate(168.291081, 196.290602)"><g><path d="M 0.90625 -5.097656 C 0.90625 -2.171875 2.886719 0.230469 5.6875 0.230469 C 6.699219 0.230469 8.046875 -0.0859375 8.660156 -0.757812 L 8.660156 0 L 11.628906 0 L 11.628906 -10.640625 L 8.660156 -10.640625 L 8.660156 -5.351562 C 8.660156 -3.390625 7.414062 -2.738281 6.089844 -2.738281 C 4.886719 -2.738281 3.898438 -3.8125 3.898438 -5.351562 L 3.898438 -10.640625 L 0.90625 -10.640625 Z M 0.90625 -5.097656 "/></g></g></g><g fill="#000000" fill-opacity="1"><g transform="translate(180.96833, 196.290602)"><g><path d="M 13.695312 -6.929688 C 13.25 -4.570312 11.269531 -2.863281 8.910156 -2.863281 C 6.277344 -2.863281 4.191406 -5.078125 4.191406 -7.835938 C 4.191406 -10.617188 6.277344 -12.851562 8.910156 -12.851562 C 10.535156 -12.851562 12.136719 -12.03125 13.273438 -10.34375 L 15.820312 -12.15625 C 14.410156 -14.453125 11.820312 -15.96875 8.890625 -15.96875 C 4.425781 -15.96875 0.84375 -12.324219 0.84375 -7.835938 C 0.84375 -3.351562 4.425781 0.273438 8.910156 0.273438 C 13.082031 0.273438 16.539062 -2.90625 17 -6.929688 Z M 13.695312 -6.929688 "/></g></g></g><g fill="#000000" fill-opacity="1"><g transform="translate(198.80493, 196.290602)"><g><path d="M 6.128906 -10.871094 C 3.074219 -10.871094 0.609375 -8.386719 0.609375 -5.308594 C 0.609375 -2.273438 3.074219 0.230469 6.128906 0.230469 C 9.183594 0.230469 11.734375 -2.273438 11.734375 -5.308594 C 11.734375 -8.386719 9.183594 -10.871094 6.128906 -10.871094 Z M 6.128906 -2.738281 C 4.761719 -2.738281 3.644531 -3.792969 3.644531 -5.308594 C 3.644531 -6.804688 4.761719 -7.878906 6.128906 -7.878906 C 7.585938 -7.878906 8.679688 -6.804688 8.679688 -5.308594 C 8.679688 -3.792969 7.585938 -2.738281 6.128906 -2.738281 Z M 6.128906 -2.738281 "/></g></g></g><g fill="#000000" fill-opacity="1"><g transform="translate(211.145242, 196.290602)"><g><path d="M 11.777344 -5.308594 C 11.777344 -8.386719 9.753906 -10.871094 6.847656 -10.871094 C 5.878906 -10.871094 4.636719 -10.574219 4.046875 -9.902344 L 4.046875 -10.640625 L 1.054688 -10.640625 L 1.054688 0 L 4.046875 0 L 4.046875 -5.308594 C 4.046875 -7.015625 5.265625 -7.878906 6.59375 -7.878906 C 7.816406 -7.878906 8.804688 -7.015625 8.804688 -5.308594 L 8.804688 0 L 11.777344 0 Z M 11.777344 -5.308594 "/></g></g></g><g fill="#000000" fill-opacity="1"><g transform="translate(223.822492, 196.290602)"><g><path d="M 11.777344 -5.308594 C 11.777344 -8.386719 9.753906 -10.871094 6.847656 -10.871094 C 5.878906 -10.871094 4.636719 -10.574219 4.046875 -9.902344 L 4.046875 -10.640625 L 1.054688 -10.640625 L 1.054688 0 L 4.046875 0 L 4.046875 -5.308594 C 4.046875 -7.015625 5.265625 -7.878906 6.59375 -7.878906 C 7.816406 -7.878906 8.804688 -7.015625 8.804688 -5.308594 L 8.804688 0 L 11.777344 0 Z M 11.777344 -5.308594 "/></g></g></g><g fill="#000000" fill-opacity="1"><g transform="translate(236.499741, 196.290602)"><g><path d="M 8.679688 -3.8125 C 8.195312 -3.054688 7.289062 -2.738281 6.382812 -2.738281 C 6.066406 -2.738281 5.773438 -2.761719 5.5 -2.863281 L 11.441406 -7.121094 C 10.785156 -9.101562 8.765625 -10.871094 6.128906 -10.871094 C 3.074219 -10.871094 0.609375 -8.386719 0.609375 -5.308594 C 0.609375 -2.273438 3.179688 0.230469 6.382812 0.230469 C 8.28125 0.230469 10.15625 -0.632812 11.058594 -1.980469 Z M 3.644531 -5.308594 C 3.644531 -6.804688 4.761719 -7.878906 6.128906 -7.878906 C 6.699219 -7.878906 7.183594 -7.691406 7.605469 -7.375 L 3.730469 -4.613281 C 3.664062 -4.824219 3.644531 -5.054688 3.644531 -5.308594 Z M 3.644531 -5.308594 "/></g></g></g><g fill="#000000" fill-opacity="1"><g transform="translate(248.545242, 196.290602)"><g><path d="M 8.660156 -4.886719 C 8.46875 -3.601562 7.4375 -2.738281 6.128906 -2.738281 C 4.761719 -2.738281 3.644531 -3.792969 3.644531 -5.308594 C 3.644531 -6.804688 4.761719 -7.878906 6.128906 -7.878906 C 6.867188 -7.878906 7.5625 -7.625 8.109375 -6.929688 L 10.492188 -8.785156 C 9.460938 -10.050781 7.878906 -10.871094 6.128906 -10.871094 C 3.074219 -10.871094 0.609375 -8.386719 0.609375 -5.308594 C 0.609375 -2.273438 3.074219 0.230469 6.128906 0.230469 C 9.058594 0.230469 11.523438 -2.042969 11.734375 -4.886719 Z M 8.660156 -4.886719 "/></g></g></g><g fill="#000000" fill-opacity="1"><g transform="translate(260.864497, 196.290602)"><g><path d="M 7.289062 -7.878906 L 7.289062 -10.640625 L 4.761719 -10.640625 L 4.761719 -14.199219 L 1.769531 -12.03125 L 1.769531 -10.640625 L 0.167969 -10.640625 L 0.167969 -7.878906 L 1.769531 -7.878906 L 1.769531 -4.402344 C 1.769531 -1.644531 4.046875 0.230469 7.226562 0.230469 L 7.226562 -2.738281 C 5.855469 -2.738281 4.761719 -3.285156 4.761719 -4.488281 L 4.761719 -7.878906 Z M 7.289062 -7.878906 "/></g></g></g></svg>